<?xml version="1.0" encoding="UTF-8" standalone="no"?>
<svg width="40px" height="40px" viewBox="0 0 40 40" version="1.1" xmlns="http://www.w3.org/2000/svg" xmlns:xlink="http://www.w3.org/1999/xlink">
    <!-- Generator: Sketch 40 (33762) - http://www.bohemiancoding.com/sketch -->
    <title>Shape</title>
    <desc>Created with Sketch.</desc>
    <defs></defs>
    <g id="Page-1" stroke="none" stroke-width="1" fill="none" fill-rule="evenodd">
        <g id="01-Homepage" transform="translate(-987.000000, -4050.000000)" fill="#EBEBEB">
            <g id="Contacts" transform="translate(0.000000, 4005.000000)">
                <g id="Group-17">
                    <path d="M1010.414,69.6326667 L1006.15133,66.1453333 C1005.56,65.9133333 1005,65.4893333 1005,65 L1005.00933,64.8753333 C1004.99267,64.7086667 1005.01267,64.5246667 1005.05067,64.338 L1005.66667,56.3333333 C1005.66667,55.5973333 1006.264,55 1007,55 C1007.736,55 1008.33333,55.5973333 1008.33333,56.3333333 L1008.89067,63.5813333 L1012.29933,67.748 C1012.82,68.2686667 1012.82,69.1126667 1012.29933,69.6333333 C1011.77933,70.1533333 1010.93467,70.1533333 1010.414,69.6326667 L1010.414,69.6326667 Z M1027,65 C1027,76.0453333 1018.04533,85 1007,85 C995.954667,85 987,76.0453333 987,65 C987,53.954 995.954667,45 1007,45 C1008.71067,45 1010.362,45.24 1011.946,45.6466667 C1012.078,45.658 1012.21067,45.6833333 1012.34133,45.7366667 C1013.022,46.018 1013.34533,46.798 1013.064,47.478 C1012.81533,48.078 1012.18,48.3986667 1011.56667,48.274 L1011.56133,48.2926667 C1010.10533,47.896 1008.58133,47.666 1007,47.666 C997.427333,47.666 989.666667,55.4266667 989.666667,64.9993333 C989.666667,74.572 997.427333,82.3326667 1007,82.3326667 C1016.57267,82.3326667 1024.33333,74.572 1024.33333,64.9993333 C1024.33333,64.1153333 1024.246,63.254 1024.11867,62.4053333 L1024.15133,62.4006667 C1024.12133,62.296 1024.10067,62.188 1024.098,62.074 C1024.08133,61.338 1024.66467,60.7273333 1025.40133,60.7106667 C1026.13733,60.694 1026.748,61.2773333 1026.764,62.014 C1026.76467,62.0326667 1026.76,62.05 1026.75933,62.068 C1026.90267,63.028 1027,64.0013333 1027,65 L1027,65 Z" id="Shape"></path>
                </g>
            </g>
        </g>
    </g>
</svg>