<?xml version="1.0" encoding="UTF-8" standalone="no"?>
<svg width="35px" height="29px" viewBox="0 0 35 29" version="1.1" xmlns="http://www.w3.org/2000/svg" xmlns:xlink="http://www.w3.org/1999/xlink">
    <!-- Generator: Sketch 40 (33762) - http://www.bohemiancoding.com/sketch -->
    <title>Combined Shape</title>
    <desc>Created with Sketch.</desc>
    <defs>
        <filter x="-50%" y="-50%" width="200%" height="200%" filterUnits="objectBoundingBox" id="filter-1">
            <feOffset dx="0" dy="1" in="SourceAlpha" result="shadowOffsetOuter1"></feOffset>
            <feGaussianBlur stdDeviation="1.5" in="shadowOffsetOuter1" result="shadowBlurOuter1"></feGaussianBlur>
            <feColorMatrix values="0 0 0 0 0   0 0 0 0 0   0 0 0 0 0  0 0 0 0.1 0" type="matrix" in="shadowBlurOuter1" result="shadowMatrixOuter1"></feColorMatrix>
            <feMerge>
                <feMergeNode in="shadowMatrixOuter1"></feMergeNode>
                <feMergeNode in="SourceGraphic"></feMergeNode>
            </feMerge>
        </filter>
    </defs>
    <g id="Page-1" stroke="none" stroke-width="1" fill="none" fill-rule="evenodd">
        <g id="01-Homepage" transform="translate(-973.000000, -3482.000000)" fill="#813D98">
            <g id="5" transform="translate(0.000000, 3375.000000)">
                <g id="Group-15" filter="url(#filter-1)" transform="translate(640.000000, 50.000000)">
                    <g id="Group-10" transform="translate(280.000000, 0.000000)">
                        <path d="M78.2557893,69.2221071 L67.8697897,69.2221071 L67.8697897,72.7999025 L74.2062912,72.7999025 C73.2610428,75.9103507 70.449707,78.1665956 67.1278357,78.1665956 C63.03058,78.1665956 59.7092982,74.7340008 59.7092982,70.4999086 C59.7092982,66.2656337 63.0306979,62.8332826 67.1278357,62.8332826 C69.1910856,62.8332826 71.057232,63.7039375 72.4019351,65.1088428 L74.9149328,62.2859928 C72.9079307,60.2536115 70.1598002,59 67.1278357,59 C60.982129,58.9999391 56,64.148679 56,70.4999086 C56,76.8511382 60.982129,82 67.1278946,82 C72.5113651,82 77.2246949,78.0489362 78.2558482,72.7999634 L78.2558482,69.2221681 L78.2557893,69.2221071 Z M85,69.2160139 L82.8756084,69.2160139 L82.8756084,67.0205791 L81.0545666,67.0205791 L81.0545666,69.2160139 L78.930175,69.2160139 L78.930175,71.0977717 L81.0545666,71.0977717 L81.0545666,73.2932676 L82.8756084,73.2932676 L82.8756084,71.0977717 L85,71.0977717 L85,69.2160139 Z" id="Combined-Shape"></path>
                    </g>
                </g>
            </g>
        </g>
    </g>
</svg>