<?xml version="1.0" encoding="UTF-8" standalone="no"?>
<svg width="22px" height="20px" viewBox="0 0 22 20" version="1.1" xmlns="http://www.w3.org/2000/svg" xmlns:xlink="http://www.w3.org/1999/xlink">
    <!-- Generator: Sketch 40 (33762) - http://www.bohemiancoding.com/sketch -->
    <title>Shape</title>
    <desc>Created with Sketch.</desc>
    <defs></defs>
    <g id="Page-1" stroke="none" stroke-width="1" fill="none" fill-rule="evenodd">
        <g id="01-Homepage" transform="translate(-243.000000, -1970.000000)" fill="#9595A6">
            <g id="04-Оборудование" transform="translate(0.000000, 1760.000000)">
                <g id="Group-7" transform="translate(70.000000, 87.000000)">
                    <g id="Group-3" transform="translate(0.000000, 120.000000)">
                        <g id="Group-4" transform="translate(173.000000, 0.000000)">
                            <path d="M20.1128401,4.877284 C18.8546601,3.62889731 17.2048802,3.00000092 15.5584003,3.0008759 C13.9117003,3.00000092 12.2586204,3.62539737 11.0004405,4.87553402 C9.74226051,3.62539737 8.08962058,2.99912593 6.44248065,3.00000092 C4.79512072,2.99912593 3.14424079,3.62714734 1.88804084,4.877284 C0.631620894,6.12632692 9.20823943e-07,7.76867619 9.20823943e-07,9.40577553 C-0.000879079139,11.0446249 0.628980894,12.6885053 1.88716084,13.939517 L11.0004405,23 L11.3966604,22.6051624 L20.1128401,13.939517 C21.37102,12.6887241 22,11.0446249 22,9.40577553 C22,7.76867619 21.3675,6.12632692 20.1128401,4.877284 L20.1128401,4.877284 Z M19.3186401,13.1507168 L11.0004405,21.4245872 L2.68026081,13.1507168 C1.63878085,12.1160456 1.12156087,10.7633168 1.12156087,9.40577553 C1.12156087,8.05064052 1.64054085,6.69966169 2.68114081,5.6649904 C3.72108077,4.63031912 5.07958071,4.11517094 6.44248065,4.11517094 C7.80802059,4.11517094 9.16740054,4.63031912 10.2099805,5.6649904 L10.2786205,5.73258309 C9.50180052,6.83222211 9.11152054,8.12151441 9.11152054,9.4075255 L10.2313205,9.40840049 C10.2330805,8.05654668 10.7478805,6.71081776 11.7807804,5.67614648 L11.7911204,5.6649904 C12.8323804,4.63031912 14.1937403,4.11582718 15.5584003,4.11517094 C16.9213002,4.11517094 18.2789202,4.63206909 19.3188601,5.66674038 C20.3603401,6.69988044 20.87954,8.05064052 20.87954,9.40665052 C20.87602,10.7635355 20.3603401,12.1160456 19.3186401,13.1507168 L19.3186401,13.1507168 Z" id="Shape"></path>
                        </g>
                    </g>
                </g>
            </g>
        </g>
    </g>
</svg>