<?xml version="1.0" encoding="UTF-8" standalone="no"?>
<svg width="14px" height="24px" viewBox="0 0 14 24" version="1.1" xmlns="http://www.w3.org/2000/svg" xmlns:xlink="http://www.w3.org/1999/xlink">
    <!-- Generator: Sketch 40 (33762) - http://www.bohemiancoding.com/sketch -->
    <title>Shape</title>
    <desc>Created with Sketch.</desc>
    <defs></defs>
    <g id="Page-1" stroke="none" stroke-width="1" fill="none" fill-rule="evenodd">
        <g id="02-Лазерная-Эпиляция" transform="translate(-682.000000, -1129.000000)" fill="#59485B">
            <g id="Услуги" transform="translate(70.000000, 1041.000000)">
                <g id="Right" transform="translate(370.000000, 70.000000)">
                    <g id="Group-3" transform="translate(242.000000, 18.000000)">
                        <path d="M3.98583984,12.87854 L2.59088902,9.99320923 C2.23297951,9.31975179 1.3997972,9.04343754 0.728110653,9.37595129 C0.0578790195,9.70799672 -0.195276489,10.5242946 0.162148051,11.1972837 L2.53075246,15.6562463 C2.57246007,15.7330523 2.61853244,15.8037701 2.67042447,15.8698045 C2.8847822,16.4664559 3.4715986,16.8954455 4.1617141,16.8954455 L9.83782917,16.8954455 C10.5279447,16.8954455 11.115246,16.4664559 11.3286338,15.8698045 C11.3805259,15.8037701 11.4275682,15.7330523 11.4678209,15.6562463 L13.8378802,11.1972837 C14.1953047,10.5242946 13.9421492,9.70799672 13.2709476,9.37595129 C12.5997461,9.04343754 11.7655938,9.31975179 11.4086543,9.99320923 L10.2005884,12.2650743 L10.1942838,0 L7.99554443,0 L7.19667036,7.30125278 L6.79171855,7.30125278 L6.04333496,0 L3.79749995,0 L3.98583984,12.87854 Z M7.05166367,24 C8.61036444,24 9.87614198,22.778129 9.87614198,21.2729189 C9.87614198,19.7677087 8.61036444,18.5449011 7.05166367,18.5449011 C5.49247792,18.5449011 4.22670038,19.7677087 4.22670038,21.2729189 C4.22670038,22.778129 5.49247792,24 7.05166367,24 Z" id="Shape" transform="translate(7.000000, 12.000000) scale(1, -1) translate(-7.000000, -12.000000) "></path>
                    </g>
                </g>
            </g>
        </g>
    </g>
</svg>