<?xml version="1.0" encoding="UTF-8" standalone="no"?>
<svg width="35px" height="35px" viewBox="0 0 35 35" version="1.1" xmlns="http://www.w3.org/2000/svg" xmlns:xlink="http://www.w3.org/1999/xlink">
    <!-- Generator: Sketch 40 (33762) - http://www.bohemiancoding.com/sketch -->
    <title>Shape</title>
    <desc>Created with Sketch.</desc>
    <defs></defs>
    <g id="Page-1" stroke="none" stroke-width="1" fill="none" fill-rule="evenodd">
        <g id="01-Homepage" transform="translate(-552.000000, -4056.000000)" fill="#EBEBEB">
            <g id="Contacts" transform="translate(0.000000, 4005.000000)">
                <g id="Group-17">
                    <g id="Group-16" transform="translate(552.000000, 45.000000)">
                        <path d="M22.2442255,30.6881235 C21.7753411,30.7270558 21.3455304,30.4934624 20.9157197,30.2598691 C16.969276,27.9628678 13.6089378,24.6925609 11.2645158,20.7993384 C10.8347051,20.1374906 10.4439681,19.3588461 10.6002629,18.5802016 C10.8737788,17.1007771 12.7493164,16.5167937 13.2963482,15.1152336 C13.8043063,13.9083347 13.1400534,12.5457068 12.3585794,11.4945367 C11.0691473,9.74258662 9.42805186,8.22422986 7.55251426,7.09519534 C6.65381916,6.55014419 5.67697666,6.0829575 4.62198676,6.00509305 C-0.105930942,5.7714997 -0.379446842,13.6358091 0.245732358,16.7114549 C0.909985257,19.9038973 2.51200696,22.8627464 4.38754456,25.5490699 C8.80287266,31.9339547 14.8592962,37.345534 22.2051518,39.9150608 C24.784016,40.810502 27.5582487,41.3555531 30.2152602,40.7326375 C31.543766,40.4211797 32.7941244,39.8371963 33.7318932,38.8249585 C34.669662,37.8516529 35.1776201,36.4500928 34.9431779,35.1263972 C34.7087357,33.7637693 33.7709669,32.673667 32.8331981,31.7003614 C31.4656186,30.2988013 29.9417443,29.0529701 28.300649,27.9628678 C27.9880594,27.7682067 27.6754698,27.5735456 27.3238065,27.5346133 C26.9330695,27.4956811 26.5814062,27.6903422 26.2297429,27.8850034 C25.2529004,28.4300545 24.3542053,29.0919023 23.5727313,29.8316146 C23.221068,30.1820046 22.830331,30.5323946 22.3614466,30.6102591 C22.3223729,30.6491913 22.2832992,30.6881235 22.2442255,30.6881235 L22.2442255,30.6881235 Z" id="Shape"></path>
                    </g>
                </g>
            </g>
        </g>
    </g>
</svg>