<?xml version="1.0" encoding="UTF-8" standalone="no"?>
<svg width="16px" height="16px" viewBox="0 0 16 16" version="1.1" xmlns="http://www.w3.org/2000/svg" xmlns:xlink="http://www.w3.org/1999/xlink">
    <!-- Generator: Sketch 40 (33762) - http://www.bohemiancoding.com/sketch -->
    <title>Shape</title>
    <desc>Created with Sketch.</desc>
    <defs></defs>
    <g id="Page-1" stroke="none" stroke-width="1" fill="none" fill-rule="evenodd">
        <g id="01-Homepage" transform="translate(-423.000000, -1678.000000)" fill="#9595A6">
            <g id="03-Подписка" transform="translate(0.000000, 1520.000000)">
                <g id="Input" transform="translate(408.000000, 144.000000)">
                    <path d="M27.0976378,16.0251969 C26.9244094,14.8598425 26.1716535,14 25.2614173,14 C24.1338583,14 23.1007874,15.0897638 23,15.2094488 C22.8992126,15.0897638 21.815748,14 20.7385827,14 C19.8283465,14 19.0755906,14.8598425 18.9023622,16.0251969 L16.3322835,16.0251969 C15.5984252,16.0251969 15,16.623622 15,17.3574803 L15,19.3606299 C15,19.6062992 15.1984252,19.8047244 15.4440945,19.8047244 L16.1181102,19.8047244 L16.1181102,28.6677165 C16.1181102,29.4015748 16.7165354,30 17.4503937,30 L28.5496063,30 C29.2834646,30 29.8818898,29.4015748 29.8818898,28.6677165 L29.8818898,19.8047244 L30.5559055,19.8047244 C30.8015748,19.8047244 31,19.6062992 31,19.3606299 L31,17.3574803 C31,16.623622 30.4015748,16.0251969 29.6677165,16.0251969 L27.0976378,16.0251969 Z M25.2614173,14.888189 C25.6425197,14.888189 26.0582677,15.3291339 26.1968504,16.0220472 L23.5385827,16.0220472 C23.6047244,15.8645669 24.511811,14.888189 25.2614173,14.888189 L25.2614173,14.888189 Z M20.7385827,14.888189 C21.4031496,14.888189 22.3952756,15.8614173 22.4582677,16.0220472 L19.8,16.0220472 C19.9417323,15.3291339 20.3574803,14.888189 20.7385827,14.888189 L20.7385827,14.888189 Z M15.888189,17.3574803 C15.888189,17.111811 16.0866142,16.9133858 16.3322835,16.9133858 L22.5559055,16.9133858 L22.5559055,18.9165354 L15.888189,18.9165354 L15.888189,17.3574803 L15.888189,17.3574803 Z M22.5559055,19.8047244 L22.5559055,24.0125984 L17.0062992,24.0125984 L17.0062992,19.8047244 L22.5559055,19.8047244 L22.5559055,19.8047244 Z M17.0062992,28.6677165 L17.0062992,24.903937 L22.5559055,24.903937 L22.5559055,29.111811 L17.4503937,29.111811 C17.2047244,29.111811 17.0062992,28.9102362 17.0062992,28.6677165 L17.0062992,28.6677165 Z M28.5496063,29.111811 L23.4440945,29.111811 L23.4440945,24.903937 L28.9937008,24.903937 L28.9937008,28.6677165 C28.9937008,28.9102362 28.7952756,29.111811 28.5496063,29.111811 L28.5496063,29.111811 Z M28.9937008,24.0125984 L23.4440945,24.0125984 L23.4440945,19.8047244 L28.9937008,19.8047244 L28.9937008,24.0125984 L28.9937008,24.0125984 Z M30.111811,18.9165354 L23.4440945,18.9165354 L23.4440945,16.9133858 L29.6677165,16.9133858 C29.9133858,16.9133858 30.111811,17.111811 30.111811,17.3574803 L30.111811,18.9165354 L30.111811,18.9165354 Z" id="Shape"></path>
                </g>
            </g>
        </g>
    </g>
</svg>