<?xml version="1.0" encoding="UTF-8" standalone="no"?>
<svg width="22px" height="22px" viewBox="0 0 22 22" version="1.1" xmlns="http://www.w3.org/2000/svg" xmlns:xlink="http://www.w3.org/1999/xlink">
    <!-- Generator: Sketch 40 (33762) - http://www.bohemiancoding.com/sketch -->
    <title>Combined Shape</title>
    <desc>Created with Sketch.</desc>
    <defs></defs>
    <g id="Page-1" stroke="none" stroke-width="1" fill="none" fill-rule="evenodd">
        <g id="01-Homepage" transform="translate(-70.000000, -1969.000000)" fill="#9595A6">
            <g id="04-Оборудование" transform="translate(0.000000, 1760.000000)">
                <g id="Group-7" transform="translate(70.000000, 87.000000)">
                    <g id="Group-3" transform="translate(0.000000, 120.000000)">
                        <g id="Group-5">
                            <path d="M20.8701054,13.3846545 C20.6062194,18.6994208 16.317285,22.8870737 10.9712079,22.9707072 C5.50559325,23.0559652 1.1437835,18.382495 1.0607014,13.0279138 C0.975720295,7.54449305 5.63401442,3.16847321 10.9712079,3.08512045 C16.309856,3.00184304 20.5953865,7.45899779 20.8690374,12.6559217 C20.8755455,12.7795177 22,12.9088381 22,12.9088381 C22,12.9088381 21.9356037,12.6037932 21.9335136,12.5661746 C21.6586973,7.61985584 18.2270832,3.43210432 13.3746541,2.27874205 C8.37406177,1.09036986 3.19211309,3.8090987 1.01227641,8.39159523 C-1.15189335,12.941227 0.259790052,18.6680378 4.23799792,21.7220829 C8.36670307,24.8918692 14.0445331,24.7115891 18.051701,21.4429702 C20.4615501,19.4779011 21.7986353,16.4566634 21.9390112,13.3840412 C21.9444319,13.2653894 22,12.9088381 22,12.9088381 L20.813113,12.6791607 L20.813113,12.9088381 C20.813113,12.9088381 20.8759824,13.266289 20.8701054,13.3846545 Z M13.7573065,11.0103008 C13.955754,10.6842724 14.2244652,10.3780105 14.528783,10.1489095 C15.4104027,9.48494527 16.0845545,10.2346438 16.5536123,11.0103008 C16.9106279,11.599962 17.8345007,11.0617413 17.4762982,10.4694604 C16.8230356,9.38992313 15.7629081,8.38587961 14.4326452,8.97577899 C13.767039,9.27084776 13.2113385,9.85122111 12.8350953,10.4694604 C12.4749938,11.0607887 13.3993414,11.5990094 13.7573065,11.0103008 Z M5.1699416,11.0103008 C5.36838911,10.6842724 5.63710033,10.3780105 5.94141816,10.1489095 C6.82303783,9.48494527 7.49718965,10.2346438 7.96624739,11.0103008 C8.323263,11.599962 9.24713585,11.0617413 8.88893335,10.4694604 C8.23567074,9.38992313 7.17554327,8.38587961 5.84528031,8.97577899 C5.17967407,9.27084776 4.62397358,9.85122111 4.2477304,10.4694604 C3.88762888,11.0607887 4.8117391,11.5990094 5.1699416,11.0103008 Z M8.44646187,16.7649752 C9.27419687,17.3008144 10.1019319,17.8366535 10.9296669,18.3724927 C11.1475793,18.5137161 11.3923154,18.4353645 11.576995,18.2886637 C12.2528085,17.7528245 12.9283846,17.2169853 13.6039607,16.6811462 C14.1442316,16.252713 13.3827249,15.4996803 12.8486258,15.9233505 C12.1728123,16.4591897 11.4972362,16.9950288 10.8216602,17.530868 C11.0374362,17.5030044 11.2529749,17.4751407 11.4689883,17.4470389 C10.6412533,16.9111998 9.81351833,16.3753606 8.98578333,15.8395214 C8.40515821,15.4639577 7.87010954,16.3920312 8.44646187,16.7649752 Z" id="Combined-Shape"></path>
                        </g>
                    </g>
                </g>
            </g>
        </g>
    </g>
</svg>