<?xml version="1.0" encoding="UTF-8" standalone="no"?>
<svg width="50px" height="60px" viewBox="0 0 50 60" version="1.1" xmlns="http://www.w3.org/2000/svg" xmlns:xlink="http://www.w3.org/1999/xlink">
    <!-- Generator: Sketch 40 (33762) - http://www.bohemiancoding.com/sketch -->
    <title>Group</title>
    <desc>Created with Sketch.</desc>
    <defs></defs>
    <g id="Page-1" stroke="none" stroke-width="1" fill="none" fill-rule="evenodd">
        <g id="05-О-салоне" transform="translate(-616.000000, -736.000000)" fill="#813D98">
            <g id="Group-2" transform="translate(69.000000, 635.000000)">
                <g id="Group" transform="translate(547.000000, 101.000000)">
                    <path d="M49.1509434,42.2857143 C48.1132075,36.6666667 43.7735849,34.6666667 41.9811321,34.1904762 C41.9811321,34.1904762 38.3018868,33.2380952 37.2641509,32.952381 L37.2641509,12.8571429 C37.2641509,6 31.7924528,0.476190476 25,0.476190476 C18.2075472,0.476190476 12.7358491,6 12.7358491,12.8571429 L12.7358491,32.952381 C11.3207547,33.2380952 8.01886792,34.1904762 8.01886792,34.1904762 C4.24528302,35.3333333 1.50943396,38.3809524 0.849056604,42.3809524 C-0.377358491,50.2857143 1.88679245,56.1904762 1.88679245,56.1904762 C1.88679245,56.1904762 11.6981132,59.5238095 24.9056604,59.5238095 C38.1132075,59.5238095 48.0188679,56.1904762 48.0188679,56.1904762 C48.0188679,56.1904762 50.4716981,49.1428571 49.1509434,42.2857143 Z M14.6226415,12.8571429 C14.6226415,7.04761905 19.245283,2.38095238 25,2.38095238 C30.754717,2.38095238 35.3773585,7.04761905 35.3773585,12.8571429 L35.3773585,32.5714286 C30.6603774,32 31.509434,27.5238095 31.509434,27.5238095 C33.0188679,25.2380952 33.9622642,22.3809524 34.3396226,19.5238095 C34.4339623,18.952381 34.4339623,14.6666667 34.4339623,14.6666667 L24.245283,14.6666667 L22.1698113,9.04761905 L20.0943396,14.6666667 L15.5660377,14.6666667 C15.5660377,14.6666667 15.6603774,19.3333333 15.6603774,19.5238095 C15.9433962,22.2857143 16.9811321,25.1428571 18.3962264,27.4285714 C18.3962264,27.4285714 19.3396226,32.1904762 14.6226415,32.5714286 L14.6226415,12.8571429 Z M17.5471698,19.4285714 C17.5471698,19.047619 17.4528302,17.7142857 17.4528302,16.6666667 L21.4150943,16.6666667 L22.1698113,14.6666667 L22.9245283,16.6666667 L32.5471698,16.6666667 C32.5471698,17.6190476 32.4528302,19.047619 32.4528302,19.4285714 C31.8867925,24.5714286 28.7735849,30 25,30 C21.2264151,30 18.1132075,24.4761905 17.5471698,19.4285714 Z M3.49056604,54.6666667 C3.49056604,54.6666667 1.50943396,48.7619048 2.73584906,42.5714286 C3.30188679,39.4285714 5.47169811,36.8571429 8.58490566,36 C8.58490566,36 12.5471698,34.952381 14.245283,34.5714286 C14.245283,34.5714286 12.9245283,46.5714286 21.1320755,57.5238095 C15.0943396,57.2380952 9.24528302,56.2857143 3.49056604,54.6666667 Z M23.5849057,57.6190476 C15,47.4285714 16.1320755,34.2857143 16.1320755,34.2857143 C18.3018868,33.8095238 19.9056604,32 20.2830189,29.8095238 C21.6981132,31.1428571 23.3018868,32 25.0943396,32 C26.8867925,32 28.490566,31.2380952 29.8113208,29.9047619 C30.0943396,32.0952381 31.7924528,33.9047619 33.9622642,34.3809524 C33.9622642,34.3809524 35.4716981,46.6666667 26.509434,57.7142857 C25.4716981,57.6190476 24.5283019,57.6190476 23.5849057,57.6190476 Z M46.509434,54.6666667 C40.754717,56.2857143 34.8113208,57.2380952 28.8679245,57.5238095 C36.9811321,46.5714286 35.754717,34.5714286 35.754717,34.5714286 C37.0754717,34.8571429 41.4150943,36 41.4150943,36 C42.9245283,36.4761905 46.3207547,38.1904762 47.2641509,42.5714286 C48.490566,48.0952381 46.509434,54.6666667 46.509434,54.6666667 Z M41.9811321,45.2380952 L40.0943396,45.2380952 L40.0943396,47.1428571 L38.2075472,47.1428571 L38.2075472,49.047619 L40.0943396,49.047619 L40.0943396,50.952381 L41.9811321,50.952381 L41.9811321,49.047619 L43.8679245,49.047619 L43.8679245,47.1428571 L41.9811321,47.1428571 L41.9811321,45.2380952 Z" id="Combined-Shape"></path>
                </g>
            </g>
        </g>
    </g>
</svg>