<?xml version="1.0" encoding="UTF-8" standalone="no"?>
<svg width="50px" height="58px" viewBox="0 0 50 58" version="1.1" xmlns="http://www.w3.org/2000/svg" xmlns:xlink="http://www.w3.org/1999/xlink">
    <!-- Generator: Sketch 40 (33762) - http://www.bohemiancoding.com/sketch -->
    <title>Group 4</title>
    <desc>Created with Sketch.</desc>
    <defs>
        <path d="M0,6.99297144 C0,2.57857521 3.39147159,0.169832273 7.61836069,1.40305415 C7.61836069,1.40305415 12.5662156,3.89606607 25,4 C37.5228935,3.89606607 42.3873467,1.41029849 42.3873467,1.41029849 C46.591699,0.0791273911 50,2.57433394 50,6.99297144 L50,25.0070286 C50,29.4214248 47.9706846,35.9445927 45.3887533,39.5273379 C45.3887533,39.5273379 32.7071603,59 25,59 C17.3819487,59 4.63049759,39.5273379 4.63049759,39.5273379 C2.07314439,35.9223887 0,29.4256661 0,25.0070286 L0,6.99297144 Z" id="path-1"></path>
        <mask id="mask-2" maskContentUnits="userSpaceOnUse" maskUnits="objectBoundingBox" x="0" y="0" width="50" height="59" fill="white">
            <use xlink:href="#path-1"></use>
        </mask>
    </defs>
    <g id="Page-1" stroke="none" stroke-width="1" fill="none" fill-rule="evenodd">
        <g id="05-О-салоне" transform="translate(-1001.000000, -738.000000)">
            <g id="Group-2" transform="translate(69.000000, 635.000000)">
                <g id="Group-4" transform="translate(932.000000, 102.000000)">
                    <use id="Rectangle-9" stroke="#813D98" mask="url(#mask-2)" stroke-width="4" fill="#FFFFFF" xlink:href="#path-1"></use>
                    <path d="M26,26.5 L26,22 L24,22 L24,26.5 L19.5,26.5 L19.5,28.5 L24,28.5 L24,33 L26,33 L26,28.5 L30.5,28.5 L30.5,26.5 L26,26.5 Z" id="Combined-Shape" fill="#813D98"></path>
                </g>
            </g>
        </g>
    </g>
</svg>