<?xml version="1.0" encoding="UTF-8" standalone="no"?>
<svg width="37px" height="25px" viewBox="0 0 37 25" version="1.1" xmlns="http://www.w3.org/2000/svg" xmlns:xlink="http://www.w3.org/1999/xlink">
    <!-- Generator: Sketch 40 (33762) - http://www.bohemiancoding.com/sketch -->
    <title>Shape</title>
    <desc>Created with Sketch.</desc>
    <defs>
        <filter x="-50%" y="-50%" width="200%" height="200%" filterUnits="objectBoundingBox" id="filter-1">
            <feOffset dx="0" dy="1" in="SourceAlpha" result="shadowOffsetOuter1"></feOffset>
            <feGaussianBlur stdDeviation="1.5" in="shadowOffsetOuter1" result="shadowBlurOuter1"></feGaussianBlur>
            <feColorMatrix values="0 0 0 0 0   0 0 0 0 0   0 0 0 0 0  0 0 0 0.1 0" type="matrix" in="shadowBlurOuter1" result="shadowMatrixOuter1"></feColorMatrix>
            <feMerge>
                <feMergeNode in="shadowMatrixOuter1"></feMergeNode>
                <feMergeNode in="SourceGraphic"></feMergeNode>
            </feMerge>
        </filter>
    </defs>
    <g id="Page-1" stroke="none" stroke-width="1" fill="none" fill-rule="evenodd">
        <g id="01-Homepage" transform="translate(-691.000000, -3483.000000)" fill="#813D98">
            <g id="5" transform="translate(0.000000, 3375.000000)">
                <g id="Group-15" filter="url(#filter-1)" transform="translate(640.000000, 50.000000)">
                    <g id="vk">
                        <path d="M84.8355925,77.1590855 C84.798055,77.0721816 84.7630615,77.0000957 84.7305555,76.942342 C84.1927073,75.9017428 83.1648938,74.6244808 81.6477368,73.1101918 L81.615683,73.0755153 L81.5996278,73.058511 L81.5834031,73.0410816 L81.5671218,73.0410816 C80.8785585,72.3359519 80.442525,71.861837 80.2599257,71.6191014 C79.9258199,71.1567073 79.8509711,70.6886654 80.0335704,70.214429 C80.1625771,69.8561252 80.6471719,69.0994362 81.4862241,67.9433295 C81.9275716,67.33063 82.2771108,66.8395716 82.5352372,66.4696077 C84.3969019,63.8108721 85.2040134,62.1119048 84.956402,61.3720378 L84.8602405,61.199141 C84.7956241,61.0950507 84.6288539,60.9998269 84.3601559,60.9129838 C84.0908361,60.8263229 83.746611,60.8119907 83.3268588,60.8697444 L78.678548,60.9042388 C78.603247,60.8755745 78.4957226,60.8782466 78.3556356,60.9129838 C78.2157182,60.9477211 78.1457312,60.9651504 78.1457312,60.9651504 L78.0648335,61.008572 L78.0006128,61.0607386 C77.9467941,61.0952329 77.8876048,61.1559016 77.8229884,61.2426233 C77.7587112,61.3290413 77.704949,61.4304595 77.6619844,61.5460277 C77.1559074,62.9446878 76.5805218,64.2450877 75.9347535,65.4471666 C75.5365966,66.1639564 75.1709457,66.785158 74.8370095,67.3111358 C74.5035256,67.8369315 74.2237473,68.2243247 73.9979573,68.4726475 C73.7718282,68.7212131 73.5677466,68.920345 73.3844689,69.0707719 C73.2014739,69.2212595 73.0617827,69.2848432 72.9650559,69.2615838 C72.868103,69.2383245 72.7768034,69.2152473 72.6903655,69.1921701 C72.53982,69.0880798 72.4187279,68.9465194 72.3274282,68.7673675 C72.2357329,68.5882156 72.1739996,68.3627271 72.1417197,68.0910843 C72.1096093,67.8192592 72.0906145,67.5854508 72.0851874,67.3888696 C72.080156,67.1925312 72.0824738,66.9148154 72.0933846,66.5565116 C72.104578,66.1980256 72.1096093,65.9554722 72.1096093,65.8283047 C72.1096093,65.3889878 72.1175804,64.9122008 72.133579,64.3978223 C72.1498603,63.8834438 72.1630324,63.4758884 72.1740561,63.175642 C72.1850234,62.8750919 72.1901113,62.5571124 72.1901113,62.2218858 C72.1901113,61.8866592 72.1711165,61.6237614 72.133579,61.4329494 C72.0964939,61.2423804 72.0395658,61.0573985 71.9645475,60.8780644 C71.8890769,60.6989125 71.7786128,60.5603279 71.633664,60.4619461 C71.4884326,60.3636859 71.3078684,60.2857092 71.0929892,60.2277733 C70.522635,60.089128 69.7963647,60.0141271 68.9138392,60.0024671 C66.9125397,59.9793899 65.6265997,60.1182174 65.056302,60.4187675 C64.8303425,60.5457528 64.6258652,60.7192568 64.4430398,60.9387331 C64.2493036,61.1931288 64.2222812,61.3319563 64.3621421,61.3547906 C65.0078539,61.4586987 65.4649739,61.7072644 65.7340111,62.1002447 L65.830964,62.308486 C65.906378,62.4587307 65.981679,62.7247257 66.0570366,63.1061067 C66.132281,63.4874877 66.1808423,63.9093753 66.2022115,64.3715264 C66.2559172,65.2154837 66.2559172,65.9379213 66.2022115,66.5389001 C66.1483362,67.1401217 66.0974572,67.6081636 66.0488959,67.9433902 C66.0003347,68.2786168 65.9277472,68.5502597 65.830964,68.7582581 C65.7340111,68.9663172 65.6695077,69.0934847 65.6371713,69.1396391 C65.6048913,69.1857935 65.577982,69.2148829 65.5566128,69.2263 C65.4167519,69.2838716 65.2712943,69.3132039 65.1207488,69.3132039 C64.9699772,69.3132039 64.7871518,69.2321908 64.5719899,69.070286 C64.3568846,68.9083813 64.1336386,68.68599 63.9022519,68.4027478 C63.6708653,68.1194449 63.4099122,67.7235496 63.1192797,67.2150011 C62.8288734,66.7064526 62.5275563,66.1054132 62.2154981,65.4118828 L61.9573151,64.9089214 C61.7959154,64.5853549 61.5754395,64.1142157 61.2956612,63.4959291 C61.0157133,62.8773996 60.7682715,62.279093 60.5531662,61.7011307 C60.4671806,61.4583951 60.3380043,61.2735953 60.1658635,61.1464279 L60.0850788,61.0942613 C60.0313732,61.0481069 59.9451614,60.9990982 59.8268959,60.9468709 C59.7084607,60.8947043 59.5848812,60.8572949 59.4556484,60.8342784 L55.0331841,60.8687728 C54.581265,60.8687728 54.2746339,60.9787538 54.1131776,61.1984123 L54.0485612,61.3023204 C54.0162813,61.3601955 54,61.4526258 54,61.579854 C54,61.7070215 54.0322799,61.8630962 54.0968963,62.0478959 C54.7424951,63.6778746 55.4445695,65.2498566 56.2031198,66.7640849 C56.96167,68.2783132 57.6208364,69.4980644 58.1802234,70.4222452 C58.7397235,71.3470942 59.3100212,72.2199586 59.8911166,73.0404136 C60.4722119,73.8611722 60.8568576,74.3871501 61.0450536,74.6182257 C61.2334757,74.8497264 61.3814772,75.0228053 61.4890582,75.1383735 L61.8926422,75.554431 C62.1508817,75.8319039 62.5301002,76.1642155 63.0304675,76.5513658 C63.5309479,76.938759 64.0850208,77.32014 64.692969,77.696116 C65.3010303,78.0714848 66.0084188,78.3778042 66.8155303,78.6147098 C67.6225287,78.8518584 68.4079883,78.9470214 69.1720221,78.9011099 L71.0282032,78.9011099 C71.4046517,78.8661905 71.6898571,78.739023 71.8837063,78.5195468 L71.947927,78.4326429 C71.9911177,78.3636542 72.0315383,78.2564668 72.0688496,78.1122343 C72.1066131,77.9677589 72.1253819,77.808587 72.1253819,77.6354473 C72.1143581,77.1384982 72.1495777,76.6906184 72.2300796,76.2918688 C72.3105251,75.8932406 72.4022205,75.5926905 72.50477,75.3902793 C72.6072631,75.1880502 72.7229281,75.0174004 72.8516521,74.8790587 C72.9806588,74.7404133 73.0725803,74.6564245 73.1265121,74.6275173 C73.1801047,74.5984279 73.2228997,74.5786908 73.2551796,74.5668485 C73.5134191,74.4744183 73.8173367,74.5639335 74.1673846,74.8358193 C74.5171498,75.1074622 74.8452067,75.442871 75.152064,75.8414991 C75.4587516,76.2404917 75.8272291,76.6881285 76.2575528,77.1850777 C76.6881593,77.682209 77.0646643,78.0517478 77.3873506,78.2948478 L77.7100369,78.5029069 C77.925538,78.6417344 78.2053162,78.7689019 78.5497109,78.8844701 C78.8934838,78.9999775 79.1946878,79.0288847 79.453323,78.971131 L83.5850983,78.9018994 C83.9937702,78.9018994 84.3117643,78.8292063 84.5373281,78.6849738 C84.7633442,78.5404984 84.8976084,78.3813265 84.9409121,78.2081868 C84.9841028,78.034865 84.9864206,77.838223 84.9491093,77.6183823 C84.9108369,77.3990883 84.8731299,77.2457464 84.8355925,77.1590855 L84.8355925,77.1590855 Z" id="Shape"></path>
                    </g>
                </g>
            </g>
        </g>
    </g>
</svg>