<?xml version="1.0" encoding="UTF-8" standalone="no"?>
<svg width="13px" height="24px" viewBox="0 0 13 24" version="1.1" xmlns="http://www.w3.org/2000/svg" xmlns:xlink="http://www.w3.org/1999/xlink">
    <!-- Generator: Sketch 40 (33762) - http://www.bohemiancoding.com/sketch -->
    <title>Shape</title>
    <desc>Created with Sketch.</desc>
    <defs></defs>
    <g id="Page-1" stroke="none" stroke-width="1" fill="none" fill-rule="evenodd">
        <g id="02-Лазерная-Эпиляция" transform="translate(-482.000000, -1129.000000)" fill="#59485B">
            <g id="Услуги" transform="translate(70.000000, 1041.000000)">
                <g id="Right" transform="translate(370.000000, 70.000000)">
                    <g id="Group-4" transform="translate(42.000000, 18.000000)">
                        <g id="Group-5">
                            <path d="M5.01255185,0 L4.49024182,5.00784451 L1.55603272,5.01205948 L4.32654683,12.6818874 L4.29816041,13.7271982 L1.73344782,10.9176911 C1.38618734,10.4493619 0.935789557,10.2657768 0.486337986,10.4938532 C0.0392519503,10.7214612 -0.13106654,11.2829879 0.108798667,11.7438239 L3.27009908,16.00562 C3.52131885,16.3325138 3.89318089,16.8561058 4.60709923,16.8551692 L8.39290077,16.8551692 C9.10681911,16.8561058 9.47868115,16.3325138 9.72990092,16.00562 L12.8912013,11.7438239 C13.1310665,11.2829879 12.960748,10.7214612 12.513662,10.4938532 C12.0642104,10.2657768 11.5073636,10.4559185 11.2665522,10.9176911 L8.70183959,13.7271982 L8.67345317,12.6818874 L11.4439673,5.01205948 L8.50975818,5.00784451 L7.98744815,0 L5.01255185,0 L5.01255185,0 Z M3.74462532,21.2729189 C3.74462532,22.778129 4.97943437,24 6.50047311,24 C8.02103874,24 9.25584779,22.778129 9.25584779,21.2729189 C9.25584779,19.7677087 8.02103874,18.5449011 6.50047311,18.5449011 C4.97943437,18.5449011 3.74462532,19.7677087 3.74462532,21.2729189 L3.74462532,21.2729189 Z" id="Shape" transform="translate(6.500000, 12.000000) scale(-1, -1) translate(-6.500000, -12.000000) "></path>
                        </g>
                    </g>
                </g>
            </g>
        </g>
    </g>
</svg>